<svg width="159" height="159" viewBox="0 0 159 159" fill="none" xmlns="http://www.w3.org/2000/svg">
<ellipse rx="4.69783" ry="4.69795" transform="matrix(-0.729992 0.683455 -0.68212 -0.73124 149.389 81.948)" fill="#FCBEBC"/>
<ellipse rx="4.69783" ry="4.69795" transform="matrix(-0.730616 0.682788 -0.682806 -0.7306 125.281 104.472)" fill="#FCBEBC"/>
<ellipse rx="4.69783" ry="4.69795" transform="matrix(-0.730616 0.682788 -0.682806 -0.7306 101.179 126.997)" fill="#FCBEBC"/>
<ellipse rx="4.69783" ry="4.69795" transform="matrix(-0.730616 0.682788 -0.682806 -0.7306 78.6459 102.886)" fill="#FCBEBC"/>
<ellipse rx="4.69783" ry="4.69795" transform="matrix(-0.730616 0.682788 -0.682806 -0.7306 102.748 80.3615)" fill="#FCBEBC"/>
<ellipse rx="4.69783" ry="4.69795" transform="matrix(-0.730616 0.682788 -0.682806 -0.7306 126.85 57.8376)" fill="#FCBEBC"/>
<ellipse rx="4.69783" ry="4.69795" transform="matrix(-0.730616 0.682788 -0.682806 -0.7306 56.1131 78.776)" fill="#FCBEBC"/>
<ellipse rx="4.69783" ry="4.69795" transform="matrix(-0.730616 0.682788 -0.682806 -0.7306 77.8108 150.306)" fill="#FCBEBC"/>
<ellipse rx="4.69783" ry="4.69795" transform="matrix(-0.730616 0.682788 -0.682806 -0.7306 54.5439 125.411)" fill="#FCBEBC"/>
<ellipse rx="4.69783" ry="4.69795" transform="matrix(-0.730616 0.682788 -0.682806 -0.7306 32.0108 101.3)" fill="#FCBEBC"/>
<ellipse rx="4.69783" ry="4.69795" transform="matrix(-0.730616 0.682788 -0.682806 -0.7306 80.2154 56.2516)" fill="#FCBEBC"/>
<ellipse rx="4.69783" ry="4.69795" transform="matrix(-0.730616 0.682788 -0.682806 -0.7306 104.317 33.7277)" fill="#FCBEBC"/>
<ellipse rx="4.69783" ry="4.69795" transform="matrix(-0.730616 0.682788 -0.682806 -0.7306 33.5801 54.6659)" fill="#FCBEBC"/>
<ellipse rx="4.69783" ry="4.69795" transform="matrix(-0.730616 0.682788 -0.682806 -0.7306 9.47819 77.1906)" fill="#FCBEBC"/>
<ellipse rx="4.69783" ry="4.69795" transform="matrix(-0.730616 0.682788 -0.682806 -0.7306 57.6824 32.1415)" fill="#FCBEBC"/>
<ellipse rx="4.69783" ry="4.69795" transform="matrix(-0.730616 0.682788 -0.682806 -0.7306 81.7843 9.61709)" fill="#FCBEBC"/>
</svg>
