<svg className="Shapes" width="1352" height="646" viewBox="0 0 1352 646" fill="none" xmlns="http://www.w3.org/2000/svg">
<ellipse cx="119.321" cy="154.003" rx="3.53982" ry="3.53982" transform="rotate(43.0626 119.321 154.003)" fill="#7DCCCB"/>
<ellipse cx="141.951" cy="175.152" rx="3.53982" ry="3.53982" transform="rotate(43.0626 141.951 175.152)" fill="#7DCCCB"/>
<ellipse cx="164.579" cy="196.3" rx="3.53982" ry="3.53982" transform="rotate(43.0626 164.579 196.3)" fill="#7DCCCB"/>
<ellipse cx="143.431" cy="218.93" rx="3.53982" ry="3.53982" transform="rotate(43.0626 143.431 218.93)" fill="#7DCCCB"/>
<ellipse cx="120.801" cy="197.781" rx="3.53982" ry="3.53982" transform="rotate(43.0626 120.801 197.781)" fill="#7DCCCB"/>
<ellipse cx="98.1722" cy="176.633" rx="3.53982" ry="3.53982" transform="rotate(43.0626 98.1722 176.633)" fill="#7DCCCB"/>
<ellipse cx="122.283" cy="241.559" rx="3.53982" ry="3.53982" transform="rotate(43.0626 122.283 241.559)" fill="#7DCCCB"/>
<ellipse cx="187.209" cy="217.449" rx="3.53982" ry="3.53982" transform="rotate(43.0626 187.209 217.449)" fill="#7DCCCB"/>
<ellipse cx="166.06" cy="240.078" rx="3.53982" ry="3.53982" transform="rotate(43.0626 166.06 240.078)" fill="#7DCCCB"/>
<ellipse cx="144.911" cy="262.708" rx="3.53982" ry="3.53982" transform="rotate(43.0626 144.911 262.708)" fill="#7DCCCB"/>
<ellipse cx="99.6526" cy="220.411" rx="3.53982" ry="3.53982" transform="rotate(43.0626 99.6526 220.411)" fill="#7DCCCB"/>
<ellipse cx="77.0237" cy="199.262" rx="3.53982" ry="3.53982" transform="rotate(43.0626 77.0237 199.262)" fill="#7DCCCB"/>
<ellipse cx="101.134" cy="264.189" rx="3.53982" ry="3.53982" transform="rotate(43.0626 101.134 264.189)" fill="#7DCCCB"/>
<ellipse cx="123.763" cy="285.337" rx="3.53982" ry="3.53982" transform="rotate(43.0626 123.763 285.337)" fill="#7DCCCB"/>
<ellipse cx="78.5042" cy="243.04" rx="3.53982" ry="3.53982" transform="rotate(43.0626 78.5042 243.04)" fill="#7DCCCB"/>
<ellipse cx="55.8753" cy="221.892" rx="3.53982" ry="3.53982" transform="rotate(43.0626 55.8753 221.892)" fill="#7DCCCB"/>
<ellipse cx="953.46" cy="14.5134" rx="3.53982" ry="3.53982" transform="rotate(90 953.46 14.5134)" fill="#7DCCCB"/>
<ellipse cx="953.46" cy="45.4868" rx="3.53982" ry="3.53982" transform="rotate(90 953.46 45.4868)" fill="#7DCCCB"/>
<ellipse cx="922.487" cy="45.4867" rx="3.53982" ry="3.53982" transform="rotate(90 922.487 45.4867)" fill="#7DCCCB"/>
<ellipse cx="922.487" cy="14.5133" rx="3.53982" ry="3.53982" transform="rotate(90 922.487 14.5133)" fill="#7DCCCB"/>
<ellipse cx="891.513" cy="45.4867" rx="3.53982" ry="3.53982" transform="rotate(90 891.513 45.4867)" fill="#7DCCCB"/>
<ellipse cx="953.46" cy="76.4603" rx="3.53982" ry="3.53982" transform="rotate(90 953.46 76.4603)" fill="#7DCCCB"/>
<ellipse cx="922.487" cy="76.4601" rx="3.53982" ry="3.53982" transform="rotate(90 922.487 76.4601)" fill="#7DCCCB"/>
<ellipse cx="891.513" cy="76.4601" rx="3.53982" ry="3.53982" transform="rotate(90 891.513 76.4601)" fill="#7DCCCB"/>
<ellipse cx="891.513" cy="14.5132" rx="3.53982" ry="3.53982" transform="rotate(90 891.513 14.5132)" fill="#7DCCCB"/>
<ellipse cx="860.539" cy="45.4866" rx="3.53982" ry="3.53982" transform="rotate(90 860.539 45.4866)" fill="#7DCCCB"/>
<ellipse cx="860.539" cy="76.46" rx="3.53982" ry="3.53982" transform="rotate(90 860.539 76.46)" fill="#7DCCCB"/>
<ellipse cx="860.54" cy="14.5132" rx="3.53982" ry="3.53982" transform="rotate(90 860.54 14.5132)" fill="#7DCCCB"/>
<ellipse cx="595.138" cy="524.434" rx="3.53982" ry="3.53982" transform="rotate(72.679 595.138 524.434)" fill="#F18F90"/>
<ellipse cx="604.361" cy="554.002" rx="3.53982" ry="3.53982" transform="rotate(72.679 604.361 554.002)" fill="#F18F90"/>
<ellipse cx="613.583" cy="583.571" rx="3.53982" ry="3.53982" transform="rotate(72.679 613.583 583.571)" fill="#F18F90"/>
<ellipse cx="584.013" cy="592.792" rx="3.53982" ry="3.53982" transform="rotate(72.679 584.013 592.792)" fill="#F18F90"/>
<ellipse cx="574.792" cy="563.224" rx="3.53982" ry="3.53982" transform="rotate(72.679 574.792 563.224)" fill="#F18F90"/>
<ellipse cx="565.571" cy="533.655" rx="3.53982" ry="3.53982" transform="rotate(72.679 565.571 533.655)" fill="#F18F90"/>
<ellipse cx="554.445" cy="602.014" rx="3.53982" ry="3.53982" transform="rotate(72.679 554.445 602.014)" fill="#F18F90"/>
<ellipse cx="622.804" cy="613.14" rx="3.53982" ry="3.53982" transform="rotate(72.679 622.804 613.14)" fill="#F18F90"/>
<ellipse cx="593.235" cy="622.361" rx="3.53982" ry="3.53982" transform="rotate(72.679 593.235 622.361)" fill="#F18F90"/>
<ellipse cx="563.667" cy="631.583" rx="3.53982" ry="3.53982" transform="rotate(72.679 563.667 631.583)" fill="#F18F90"/>
<ellipse cx="545.223" cy="572.445" rx="3.53982" ry="3.53982" transform="rotate(72.679 545.223 572.445)" fill="#F18F90"/>
<ellipse cx="536.002" cy="542.876" rx="3.53982" ry="3.53982" transform="rotate(72.679 536.002 542.876)" fill="#F18F90"/>
<ellipse cx="524.876" cy="611.235" rx="3.53982" ry="3.53982" transform="rotate(72.679 524.876 611.235)" fill="#F18F90"/>
<ellipse cx="534.097" cy="640.804" rx="3.53982" ry="3.53982" transform="rotate(72.679 534.097 640.804)" fill="#F18F90"/>
<ellipse cx="515.655" cy="581.667" rx="3.53982" ry="3.53982" transform="rotate(72.679 515.655 581.667)" fill="#F18F90"/>
<ellipse cx="506.433" cy="552.098" rx="3.53982" ry="3.53982" transform="rotate(72.679 506.433 552.098)" fill="#F18F90"/>
<ellipse cx="1283.85" cy="171.849" rx="3.53982" ry="3.53982" fill="#EDEDED"/>
<ellipse cx="1314.82" cy="171.848" rx="3.53982" ry="3.53982" fill="#EDEDED"/>
<ellipse cx="1345.79" cy="171.848" rx="3.53982" ry="3.53982" fill="#EDEDED"/>
<ellipse cx="1345.79" cy="202.821" rx="3.53982" ry="3.53982" fill="#EDEDED"/>
<ellipse cx="1314.82" cy="202.821" rx="3.53982" ry="3.53982" fill="#EDEDED"/>
<ellipse cx="1283.85" cy="202.821" rx="3.53982" ry="3.53982" fill="#EDEDED"/>
<ellipse cx="1345.79" cy="233.795" rx="3.53982" ry="3.53982" fill="#EDEDED"/>
<ellipse cx="1314.82" cy="233.795" rx="3.53982" ry="3.53982" fill="#EDEDED"/>
<ellipse cx="1283.85" cy="233.795" rx="3.53982" ry="3.53982" fill="#EDEDED"/>
<ellipse cx="1345.79" cy="264.768" rx="3.53982" ry="3.53982" fill="#EDEDED"/>
<ellipse cx="1314.82" cy="264.768" rx="3.53982" ry="3.53982" fill="#EDEDED"/>
<ellipse cx="1283.85" cy="264.768" rx="3.53982" ry="3.53982" fill="#EDEDED"/>
<rect x="453.859" y="90" width="60" height="60" rx="8" transform="rotate(18.3199 453.859 90)" fill="#EDEDED"/>
<rect x="793" y="408" width="60" height="60" rx="8" transform="rotate(30 793 408)" fill="#7DCCCB"/>
<rect x="0.882812" y="489.146" width="60" height="60" rx="8" transform="rotate(-10.8201 0.882812 489.146)" fill="#F18F90"/>
<rect x="1148" y="327.264" width="60" height="60" rx="8" transform="rotate(-10.8201 1148 327.264)" fill="#7DCCCB"/>
</svg>
